<?xml version="1.0" encoding="utf-8"?>
<!-- Generator: Adobe Illustrator 16.0.0, SVG Export Plug-In . SVG Version: 6.00 Build 0)  -->
<!DOCTYPE svg PUBLIC "-//W3C//DTD SVG 1.1//EN" "http://www.w3.org/Graphics/SVG/1.1/DTD/svg11.dtd">
<svg version="1.1" xmlns="http://www.w3.org/2000/svg" xmlns:xlink="http://www.w3.org/1999/xlink" x="0px" y="0px"
	 width="841.89px" height="595.275px" viewBox="0 0 841.89 595.275" enable-background="new 0 0 841.89 595.275"
	 xml:space="preserve">
<g id="Calque_2">
	<rect y="-0.451" fill="#EEC18E" width="841.891" height="595.99"/>
</g>
<g id="Calque_1">
	<g>
		<polygon fill="none" stroke="#FFFFFF" stroke-width="14.1732" stroke-linejoin="round" stroke-miterlimit="10" points="
			340.486,141.933 250.321,169.134 250.321,504.207 340.486,537.168 		"/>
		<polyline fill="none" stroke="#FFFFFF" stroke-width="14.1732" stroke-linejoin="round" stroke-miterlimit="10" points="
			474.024,503.188 474.024,169.512 340.486,141.933 339.891,541.256 		"/>
		<polygon fill="none" stroke="#FFFFFF" stroke-width="14.1732" stroke-linejoin="round" stroke-miterlimit="10" points="
			496.229,158.729 340.486,125.848 340.486,44.516 496.229,91.183 		"/>
		<polygon fill="none" stroke="#FFFFFF" stroke-width="14.1732" stroke-linejoin="round" stroke-miterlimit="10" points="
			340.486,125.848 224.964,160.661 224.964,94.221 340.486,44.516 		"/>
		<path fill="none" stroke="#FFFFFF" stroke-width="14.1732" stroke-linejoin="round" stroke-miterlimit="10" d="M86.49,207.758"/>
		
			<line fill="none" stroke="#FFFFFF" stroke-width="14.1732" stroke-linejoin="round" stroke-miterlimit="10" x1="227.727" y1="100.18" x2="86.49" y2="158.729"/>
		<path fill="none" stroke="#FFFFFF" stroke-width="14.1732" stroke-linejoin="round" stroke-miterlimit="10" d="M218.725,169.134"
			/>
		<path fill="none" stroke="#FFFFFF" stroke-width="14.1732" stroke-linejoin="round" stroke-miterlimit="10" d="M772.607,223.378"
			/>
		
			<line fill="none" stroke="#FFFFFF" stroke-width="14.0055" stroke-linejoin="round" stroke-miterlimit="10" x1="771.115" y1="178.998" x2="502.14" y2="99.208"/>
		<path fill="none" stroke="#FFFFFF" stroke-width="14.1732" stroke-linejoin="round" stroke-miterlimit="10" d="M502.14,167.325"/>
		<polyline fill="none" stroke="#FFFFFF" stroke-width="14.1732" stroke-linejoin="round" stroke-miterlimit="10" points="
			479.679,203.987 551.407,215.144 549.942,412.419 477.064,426.818 		"/>
		<path fill="none" stroke="#FFFFFF" stroke-width="10.4028" stroke-linejoin="round" stroke-miterlimit="10" d="M479.679,498.703"
			/>
		<path fill="none" stroke="#FFFFFF" stroke-width="8.5039" stroke-linejoin="round" stroke-miterlimit="10" d="M566.169,419.478"/>
		<polyline fill="none" stroke="#FFFFFF" stroke-width="14.1732" stroke-linejoin="round" stroke-miterlimit="10" points="
			768.299,373.96 768.299,425.03 342.165,537.467 		"/>
		<polyline fill="none" stroke="#FFFFFF" stroke-width="14.1732" stroke-linejoin="round" stroke-miterlimit="10" points="
			248.894,490.55 93.653,437.613 93.688,230.368 248.894,191.072 		"/>
		<path fill="none" stroke="#FFFFFF" stroke-width="8.5039" stroke-linejoin="round" stroke-miterlimit="10" d="M157.048,468.129"/>
		<path fill="none" stroke="#FFFFFF" stroke-width="8.5039" stroke-linejoin="round" stroke-miterlimit="10" d="M136.81,226.935"/>
		<path fill="none" stroke="#FFFFFF" stroke-width="8.5039" stroke-linejoin="round" stroke-miterlimit="10" d="M250.321,204.045"/>
		<polygon fill="none" stroke="#FFFFFF" stroke-width="8.5039" stroke-linejoin="round" stroke-miterlimit="10" points="
			428.895,433.921 381.041,441.709 380.052,193.072 428.895,200.893 		"/>
		<polygon fill="none" stroke="#FFFFFF" stroke-width="8.5039" stroke-linejoin="round" stroke-miterlimit="10" points="
			273.115,435.545 316.718,445.353 316.718,190.69 273.115,199.461 		"/>
		
			<line fill="none" stroke="#FFFFFF" stroke-width="8.5039" stroke-linejoin="round" stroke-miterlimit="10" x1="474.024" y1="169.512" x2="496.379" y2="158.659"/>
		
			<path fill="none" stroke="#FFFFFF" stroke-width="8.5039" stroke-linecap="round" stroke-linejoin="round" stroke-miterlimit="10" d="
			M340.486,141.933"/>
		
			<line fill="none" stroke="#FFFFFF" stroke-width="8.5039" stroke-linejoin="round" stroke-miterlimit="10" x1="224.964" y1="160.661" x2="250.321" y2="169.134"/>
		<path fill="none" stroke="#FFFFFF" stroke-width="8.5039" stroke-linejoin="round" stroke-miterlimit="10" d="M500.14,163.325
			c-1.282,6.155,4.652,15.059,10.896,16.349c6.243,1.299,10.449-5.505,11.722-11.66l8.368,1.739
			c-1.273,6.146,4.021,14.075,10.272,15.374c6.243,1.291,11.072-4.54,12.345-10.685l8.368,1.729
			c-1.273,6.155,3.793,15.172,10.036,16.472c6.252,1.291,11.309-5.628,12.582-11.783l8.367,1.729
			c-1.272,6.155,3.557,14.084,9.799,15.383c6.252,1.291,11.547-4.54,12.82-10.694l8.366,1.739
			c-1.272,6.146,4.979,13.442,11.222,14.742c6.252,1.292,10.123-3.907,11.406-10.053l8.358,1.73
			c-1.273,6.155,5.426,14.083,11.669,15.383c6.242,1.291,9.685-4.54,10.958-10.694l8.367,1.738
			c-1.282,6.146,4.013,14.277,10.256,15.568c6.251,1.299,11.089-4.733,12.362-10.879l8.368,1.729
			c-1.283,6.155,5.724,14.083,11.967,15.383c6.252,1.291,9.377-4.54,10.65-10.694l8.368,1.73
			c-1.273,6.155,5.873,14.285,12.125,15.576c6.243,1.299,9.22-4.733,10.492-10.888v-47.421"/>
		<path fill="none" stroke="#FFFFFF" stroke-width="8.5039" stroke-linejoin="round" stroke-miterlimit="10" d="M555.251,251.019"/>
		<polygon fill="none" stroke="#FFFFFF" stroke-width="14.1732" stroke-linejoin="round" stroke-miterlimit="10" points="
			768.698,246.778 570.87,218.014 570.87,409.232 768.698,373.079 		"/>
		<path fill="none" stroke="#FFFFFF" stroke-width="8.5039" stroke-linejoin="round" stroke-miterlimit="10" d="M218.733,166.363
			c0.38,8.312-3.35,12.861-8.264,13.766c-5.927,1.096-9.38-2.279-11.084-8.285l-8.448,2.4c1.703,6.005-5.006,14.675-10.786,14.666
			c-5.684-0.009-7.286-3.031-8.998-9.037l-8.448,2.409c1.712,5.997-4.955,13.612-9.634,14.027
			c-5.657,0.492-8.438-2.401-10.142-8.407l-8.448,2.409c1.703,5.997-4.482,14.518-10.158,14.508
			c-6.121-0.01-7.915-2.882-9.627-8.879l-8.448,2.4c1.711,5.997-4.057,12.93-9.741,13.158c-6.626,0.271-8.332-1.532-10.035-7.528
			v-52.223"/>
	</g>
</g>
</svg>
