<?xml version="1.0" encoding="utf-8"?>
<!-- Generator: Adobe Illustrator 22.1.0, SVG Export Plug-In . SVG Version: 6.00 Build 0)  -->
<svg version="1.1" id="Calque_1" xmlns="http://www.w3.org/2000/svg" xmlns:xlink="http://www.w3.org/1999/xlink" x="0px" y="0px"
	 viewBox="0 0 841.9 595.3" style="enable-background:new 0 0 841.9 595.3;" xml:space="preserve">
<style type="text/css">
	.st0{fill:none;stroke:#68462F;stroke-width:10;stroke-miterlimit:10;}
	.st1{fill:none;stroke:#68462F;stroke-width:22.6772;stroke-miterlimit:10;}
	.st2{fill:none;stroke:#68462F;stroke-width:10;stroke-miterlimit:10;}
</style>
<g>
	<g>
		<path class="st0" d="M390.2,389c0,23.5-19,42.5-42.5,42.5H166.5c-23.5,0-42.5-19-42.5-42.5V207.9c0-23.5,19-42.5,42.5-42.5h181.1
			c23.5,0,42.5,19,42.5,42.5V389z"/>
		<path class="st0" d="M726.5,389c0,23.5-19,42.5-42.5,42.5H502.9c-23.5,0-42.5-19-42.5-42.5V207.9c0-23.5,19-42.5,42.5-42.5H684
			c23.5,0,42.5,19,42.5,42.5V389z"/>
		<path class="st1" d="M631.4,231.6h-24.6c0,0-18.6-3.3-18.6,22.4c0,25.6,0,123.9,0,123.9"/>
		<line class="st1" x1="550.6" y1="290.5" x2="629.8" y2="290.5"/>
	</g>
	<path class="st2" d="M330.4,328.6c0,23.5-19,42.5-42.5,42.5h-65.4c-23.5,0-42.5-19-42.5-42.5v-65.4c0-23.5,19-42.5,42.5-42.5h65.4
		c23.5,0,42.5,19,42.5,42.5V328.6z"/>
	<path class="st2" d="M287.7,295.3c0,17.6-14.3,31.9-31.9,31.9c-17.6,0-31.9-14.3-31.9-31.9c0-17.6,14.3-31.9,31.9-31.9
		C273.4,263.4,287.7,277.7,287.7,295.3z"/>
	<path class="st2" d="M306.3,248.5c0,4.1-3.3,7.4-7.4,7.4c-4.1,0-7.4-3.3-7.4-7.4c0-4.1,3.3-7.4,7.4-7.4
		C302.9,241.1,306.3,244.4,306.3,248.5z"/>
</g>
</svg>
